<?xml version="1.0" ?><!DOCTYPE svg  PUBLIC '-//W3C//DTD SVG 1.1//EN'  'http://www.w3.org/Graphics/SVG/1.1/DTD/svg11.dtd'><svg enable-background="new 0 0 512 512" height="512px" id="Promotion" version="1.1" viewBox="0 0 512 512" width="512px" xml:space="preserve" xmlns="http://www.w3.org/2000/svg" xmlns:xlink="http://www.w3.org/1999/xlink"><path d="M155.881,429.705L155.881,429.705c-13.222,0-24.638-9.256-27.373-22.191l-23.905-97.282h57.191l21.458,85.71  C186.931,413.337,173.661,429.705,155.881,429.705z" fill="#3F5EAB"/><path d="M88.426,293.201H36.542c-12.478,0-22.594-10.116-22.594-22.594v-63.157  c0-12.478,10.116-22.594,22.594-22.594h51.883V293.201z" fill="#3F5EAB"/><linearGradient gradientUnits="userSpaceOnUse" id="SVGID_1_" x1="125.6641" x2="125.6641" y1="315.7627" y2="162.2954"><stop offset="0" style="stop-color:#B3B3B3"/><stop offset="0.0161" style="stop-color:#B7B7B7"/><stop offset="0.152" style="stop-color:#D1D1D1"/><stop offset="0.3016" style="stop-color:#E5E5E5"/><stop offset="0.4698" style="stop-color:#F4F4F4"/><stop offset="0.6721" style="stop-color:#FCFCFC"/><stop offset="1" style="stop-color:#FFFFFF"/></linearGradient><path d="M162.902,315.763h-51.883c-12.478,0-22.593-10.116-22.593-22.594v-108.28  c0-12.478,10.115-22.594,22.593-22.594h51.883V315.763z" fill="url(#SVGID_1_)"/><linearGradient gradientUnits="userSpaceOnUse" id="SVGID_2_" x1="341.4824" x2="341.4824" y1="386.3301" y2="91.7285"><stop offset="0" style="stop-color:#FFFFFF"/><stop offset="0.3279" style="stop-color:#FCFCFC"/><stop offset="0.5302" style="stop-color:#F4F4F4"/><stop offset="0.6984" style="stop-color:#E5E5E5"/><stop offset="0.848" style="stop-color:#D1D1D1"/><stop offset="0.9839" style="stop-color:#B7B7B7"/><stop offset="1" style="stop-color:#B3B3B3"/></linearGradient><path d="M341.482,386.33L341.482,386.33c-8.884,0-16.085-7.201-16.085-16.084V107.812  c0-8.883,7.201-16.084,16.085-16.084l0,0c8.883,0,16.084,7.201,16.084,16.084v262.434  C357.566,379.129,350.365,386.33,341.482,386.33z" fill="url(#SVGID_2_)"/><linearGradient gradientUnits="userSpaceOnUse" id="SVGID_3_" x1="244.1499" x2="244.1499" y1="356.3867" y2="121.6719"><stop offset="0" style="stop-color:#00FFFF"/><stop offset="1" style="stop-color:#FF7BAC"/></linearGradient><polygon fill="url(#SVGID_3_)" points="325.397,356.387 162.902,315.763 162.902,162.295 325.397,121.671 "/><linearGradient gradientUnits="userSpaceOnUse" id="SVGID_4_" x1="475.1484" x2="446.6618" y1="240.3755" y2="211.8889"><stop offset="0" style="stop-color:#00FFFF"/><stop offset="1" style="stop-color:#FF7BAC"/></linearGradient><path d="M488.391,216.132c-18.324,0-36.648,0-54.973,0c-12.869,0-12.89,20,0,20c18.324,0,36.648,0,54.973,0  C501.26,236.132,501.281,216.132,488.391,216.132L488.391,216.132z" fill="url(#SVGID_4_)"/><linearGradient gradientUnits="userSpaceOnUse" id="SVGID_5_" x1="394.0889" x2="432.9606" y1="131.1812" y2="92.3094"><stop offset="0" style="stop-color:#FF7BAC"/><stop offset="1" style="stop-color:#00FFFF"/></linearGradient><path d="M401.16,138.252c12.957-12.957,25.914-25.914,38.871-38.871c9.113-9.113-5.025-23.259-14.143-14.143  c-12.957,12.958-25.914,25.915-38.871,38.872C377.904,133.223,392.043,147.369,401.16,138.252L401.16,138.252z" fill="url(#SVGID_5_)"/><linearGradient gradientUnits="userSpaceOnUse" id="SVGID_6_" x1="432.96" x2="394.0886" y1="359.9541" y2="321.0827"><stop offset="0" style="stop-color:#00FFFF"/><stop offset="1" style="stop-color:#FF7BAC"/></linearGradient><path d="M387.018,328.154c12.957,12.957,25.914,25.914,38.871,38.871c9.113,9.113,23.26-5.025,14.143-14.142  c-12.957-12.957-25.914-25.914-38.871-38.872C392.047,304.899,377.9,319.037,387.018,328.154L387.018,328.154z" fill="url(#SVGID_6_)"/></svg>