<?xml version="1.0" standalone="no"?>
<!DOCTYPE svg PUBLIC "-//W3C//DTD SVG 20010904//EN"
 "http://www.w3.org/TR/2001/REC-SVG-20010904/DTD/svg10.dtd">
<svg version="1.0" xmlns="http://www.w3.org/2000/svg"
 width="641.000000pt" height="360.000000pt" viewBox="0 0 641.000000 360.000000"
 preserveAspectRatio="xMidYMid meet">

<g transform="translate(0.000000,360.000000) scale(0.100000,-0.100000)"
fill="#000000" stroke="none">
<path d="M2208 3539 c-16 -20 -28 -42 -28 -50 0 -8 -7 -25 -16 -38 -12 -17
-13 -26 -5 -34 6 -6 11 -25 11 -41 l0 -31 -13 25 c-17 34 -68 39 -98 9 -17
-17 -20 -29 -16 -56 4 -20 14 -44 23 -54 10 -11 14 -25 9 -36 -5 -14 -12 -7
-31 35 -21 45 -27 51 -43 42 -23 -12 -31 -32 -31 -80 0 -29 -4 -39 -20 -43
-15 -4 -20 -14 -21 -44 0 -33 -2 -35 -9 -15 -11 25 -28 29 -36 7 -9 -22 -24
-18 -24 5 0 13 -7 20 -19 20 -26 0 -31 -19 -15 -52 8 -15 11 -34 8 -42 -4 -9
-1 -23 6 -31 6 -7 10 -22 9 -32 -2 -10 0 -27 3 -38 4 -11 9 -38 13 -60 5 -32
4 -38 -6 -27 -30 29 -89 -2 -89 -48 0 -8 -9 -21 -20 -28 -25 -16 -25 -34 0
-57 19 -17 19 -20 4 -36 -15 -17 -15 -21 -1 -42 9 -14 19 -52 23 -86 3 -34 11
-64 15 -67 5 -3 9 -18 9 -34 0 -15 6 -30 14 -33 7 -3 16 -18 19 -34 3 -15 8
-41 12 -58 l6 -30 -23 29 c-13 16 -39 47 -58 69 l-34 39 24 19 c20 15 23 21
14 36 -18 30 -75 29 -104 -2 -21 -22 -25 -37 -28 -108 -1 -44 -8 -87 -14 -94
-15 -18 -2 -43 22 -43 13 0 20 -7 20 -20 0 -11 4 -20 9 -20 5 0 7 -18 4 -40
-5 -33 -3 -40 11 -40 12 0 16 -10 16 -39 0 -25 5 -41 15 -45 9 -3 15 -18 15
-35 0 -16 6 -31 12 -33 9 -3 8 -12 -6 -33 -16 -24 -17 -33 -6 -64 13 -41 11
-83 -5 -79 -5 2 -9 7 -7 12 5 16 -30 81 -65 117 -36 38 -37 75 -2 66 15 -4 19
1 19 24 0 42 -31 69 -81 69 -34 0 -47 -6 -74 -34 -49 -52 -73 -177 -40 -209
13 -13 12 -17 -10 -31 -13 -9 -32 -16 -41 -16 -11 0 -15 -6 -11 -19 3 -15 -1
-21 -17 -23 -30 -4 -48 -85 -23 -103 9 -7 17 -19 17 -28 0 -8 6 -17 12 -19 8
-3 1 -12 -15 -22 -34 -23 -34 -40 -1 -83 14 -19 24 -36 21 -39 -2 -3 -29 -6
-58 -7 -50 -2 -54 -4 -57 -28 -2 -20 2 -28 20 -32 18 -5 20 -9 10 -19 -6 -6
-12 -20 -12 -30 0 -10 -2 -18 -5 -18 -12 0 -54 44 -49 52 3 4 -2 11 -10 14 -9
4 -29 -8 -51 -29 l-35 -34 21 -28 c17 -21 19 -29 9 -35 -8 -5 -10 -15 -5 -26
4 -11 7 -31 6 -45 -2 -22 5 -29 53 -50 62 -26 68 -36 31 -45 -14 -3 -26 -10
-26 -15 -1 -5 -2 -15 -3 -21 -2 -15 28 -48 44 -48 6 0 10 -42 10 -116 0 -115
-8 -144 -39 -144 -6 0 -11 -16 -11 -35 0 -24 5 -35 15 -35 9 0 15 -9 15 -25 0
-22 -4 -25 -35 -25 -19 0 -35 -3 -35 -8 0 -4 -10 -12 -22 -17 -33 -15 -35 -51
-3 -81 l26 -24 -155 0 -156 0 0 -50 0 -50 -65 0 -65 0 0 -55 0 -55 -55 0 -55
0 0 -50 0 -50 -50 0 -50 0 0 -50 0 -49 -92 -3 -93 -3 0 -55 0 -55 2820 0 2820
0 0 55 0 55 -92 3 -93 3 0 49 0 50 -50 0 -50 0 0 50 0 50 -55 0 -55 0 0 55 0
55 -65 0 -65 0 0 50 0 50 -156 0 -155 0 26 24 c32 30 30 66 -2 81 -13 5 -23
13 -23 17 0 5 -16 8 -35 8 -31 0 -35 3 -35 25 0 16 6 25 15 25 10 0 15 11 15
35 0 19 -5 35 -11 35 -31 0 -39 29 -39 144 0 74 4 116 10 116 16 0 46 33 44
48 -1 6 -2 16 -3 21 0 5 -12 12 -26 15 -37 9 -31 19 31 45 48 21 55 28 53 50
-1 14 2 34 6 45 5 11 3 21 -5 26 -10 6 -8 14 9 35 l21 28 -35 34 c-22 21 -42
33 -51 29 -8 -3 -13 -10 -10 -14 7 -12 -42 -54 -55 -47 -5 4 -7 11 -3 16 3 5
0 17 -7 25 -10 12 -9 16 10 21 17 4 21 12 19 32 -3 24 -7 26 -57 28 -29 1 -56
4 -58 7 -3 3 7 20 21 39 33 43 33 60 -1 83 -16 10 -23 19 -15 22 6 2 12 11 12
19 0 9 8 21 17 28 25 18 7 99 -23 103 -16 2 -20 8 -17 23 4 13 0 19 -11 19 -9
0 -28 7 -41 16 -22 14 -23 18 -10 31 33 32 9 157 -40 209 -27 28 -40 34 -74
34 -50 0 -81 -27 -81 -69 0 -23 4 -28 19 -24 35 9 34 -28 -2 -66 -35 -36 -70
-101 -65 -117 2 -5 -1 -11 -7 -14 -15 -8 -18 40 -5 81 11 31 10 40 -6 64 -14
21 -15 30 -6 33 6 2 12 17 12 33 0 17 6 32 15 35 10 4 15 20 15 45 0 29 4 39
16 39 14 0 16 7 11 40 -3 22 -1 40 4 40 5 0 9 9 9 20 0 13 7 20 20 20 24 0 37
25 22 43 -6 7 -13 50 -14 94 -3 71 -7 86 -28 108 -29 31 -86 32 -104 2 -9 -15
-6 -21 14 -36 l24 -19 -34 -39 c-19 -22 -45 -53 -58 -69 l-23 -29 6 30 c4 17
9 43 12 58 3 16 12 31 19 34 8 3 14 18 14 33 0 16 4 31 9 34 4 3 12 33 15 67
4 34 14 72 23 86 14 21 14 25 -1 42 -15 16 -15 19 4 36 25 23 25 41 0 57 -11
7 -20 20 -20 28 0 46 -59 77 -89 48 -10 -11 -11 -5 -6 27 4 22 9 49 13 60 3
11 5 28 3 38 -1 10 3 25 9 32 7 8 10 22 6 31 -3 8 0 27 8 42 16 33 11 52 -15
52 -12 0 -19 -7 -19 -20 0 -23 -15 -27 -24 -5 -8 22 -25 18 -36 -7 -7 -20 -9
-18 -9 15 -1 30 -6 40 -21 44 -16 4 -20 14 -20 45 0 44 -12 73 -35 81 -11 5
-22 -8 -39 -46 -19 -41 -26 -48 -31 -34 -5 11 -1 25 9 36 9 10 19 34 23 54 4
27 1 39 -16 56 -30 30 -81 25 -98 -9 l-13 -25 0 30 c0 17 5 36 11 42 8 8 7 17
-5 34 -9 13 -16 30 -16 39 0 9 -13 31 -30 50 l-29 35 -1 -1522 0 -1523 -265 0
-265 0 0 180 0 180 53 2 c62 2 82 1 122 -7 29 -6 31 -5 30 21 0 24 7 30 59 51
62 24 109 59 100 75 -10 15 -177 95 -244 116 -36 11 -99 32 -140 47 -74 27
-131 30 -182 10 -14 -5 -18 -2 -18 13 0 28 10 33 74 33 40 1 56 5 58 16 2 8
30 25 62 38 32 13 64 29 70 35 14 14 -3 29 -109 90 -83 47 -94 51 -142 47 -46
-3 -53 -1 -53 15 0 17 7 20 52 22 10 1 23 9 30 17 7 9 34 24 60 33 58 21 73
38 59 64 -16 30 -99 64 -169 70 -51 4 -62 8 -60 21 2 9 14 18 28 19 13 2 29
10 35 17 5 7 26 16 46 19 20 4 44 15 54 26 17 19 17 21 1 39 -25 28 -73 48
-134 56 -30 4 -49 11 -46 17 3 5 15 8 25 5 11 -3 19 -1 19 4 0 5 24 20 54 33
60 27 73 41 56 61 -20 24 -117 65 -154 65 -20 0 -36 5 -36 10 0 6 5 10 12 10
24 0 138 61 138 74 0 26 -64 56 -119 56 -39 0 -51 3 -51 16 0 8 4 13 9 9 5 -3
26 6 46 19 20 14 45 28 56 31 10 4 19 10 19 15 0 14 -51 50 -71 50 -10 0 -30
5 -46 11 l-28 11 53 25 c28 14 52 31 52 39 0 19 -40 44 -72 44 -44 0 -43 20 1
37 23 9 41 22 41 28 0 15 -43 44 -79 55 -25 8 -25 8 16 26 62 27 55 50 -23 78
l-39 13 48 24 c26 13 47 27 47 32 0 4 -22 32 -49 60 -27 29 -52 63 -56 77 -18
60 -49 58 -60 -4 -4 -20 -19 -40 -41 -56 -31 -23 -74 -77 -74 -94 0 -4 21 -17
48 -28 l47 -22 -36 -9 c-20 -4 -49 -21 -64 -37 l-28 -29 46 -13 c26 -7 47 -15
47 -18 0 -3 -22 -15 -50 -28 -27 -13 -50 -29 -50 -36 0 -7 18 -21 40 -31 46
-21 50 -30 16 -39 -31 -8 -86 -54 -86 -72 0 -10 12 -14 38 -14 35 0 72 -14 62
-23 -3 -3 -23 -14 -45 -25 -48 -24 -82 -59 -69 -71 5 -5 26 -14 47 -21 20 -6
37 -15 37 -18 0 -4 -27 -24 -60 -44 -33 -20 -60 -44 -60 -52 0 -14 54 -36 88
-36 6 0 12 -7 12 -15 0 -9 8 -14 21 -12 12 1 24 -4 26 -10 3 -9 -7 -13 -32
-13 -42 0 -88 -21 -127 -58 -46 -42 -39 -52 45 -67 23 -4 37 -11 37 -21 0 -10
8 -14 26 -12 15 2 29 -3 31 -9 3 -9 -7 -13 -30 -13 -36 0 -90 -34 -137 -84
-21 -23 -22 -29 -10 -36 8 -5 32 -10 52 -10 20 0 43 -7 52 -15 8 -9 19 -15 23
-14 21 4 33 -2 33 -16 0 -10 -10 -15 -27 -15 -37 0 -124 -51 -175 -102 -37
-37 -39 -42 -22 -51 10 -6 37 -10 61 -9 30 0 46 -5 52 -16 6 -11 22 -17 43
-17 43 0 52 -30 9 -31 -63 -2 -261 -115 -261 -148 0 -10 58 -34 128 -52 6 -2
12 -13 12 -24 0 -23 4 -24 30 -10 25 13 94 -2 98 -21 2 -13 -7 -15 -57 -11
-35 3 -90 -2 -133 -12 -81 -19 -356 -143 -372 -169 -16 -25 1 -45 74 -86 45
-26 66 -44 68 -59 4 -24 22 -28 50 -11 12 8 38 9 82 3 l65 -9 0 -160 0 -160
-252 -3 -253 -2 -2 1522 -3 1523 -27 -36z m-298 -689 c18 11 30 3 30 -21 0
-11 -7 -19 -16 -19 -12 0 -14 -7 -9 -30 9 -40 -3 -37 -43 10 -27 33 -31 42
-20 54 8 9 19 11 29 6 8 -5 21 -5 29 0z m2620 0 c8 5 19 3 27 -6 12 -12 10
-20 -19 -54 -40 -47 -52 -50 -43 -10 5 23 3 30 -9 30 -9 0 -16 8 -16 18 0 26
10 33 29 22 10 -5 23 -5 31 0z m-917 -2007 c9 -53 -4 -313 -15 -313 -13 0 -47
42 -48 58 0 6 7 12 15 12 9 0 15 9 15 25 0 14 -5 25 -10 25 -6 0 -20 8 -31 19
-17 16 -19 29 -17 97 l3 79 35 17 c46 24 46 24 53 -19z m-765 -14 c20 -8 22
-15 22 -78 0 -62 -3 -72 -25 -89 -27 -22 -34 -62 -10 -62 8 0 15 -6 15 -14 0
-8 -7 -16 -15 -20 -8 -3 -15 -12 -15 -21 0 -8 -8 -15 -18 -15 -17 0 -19 13
-25 146 -3 80 -3 152 0 160 5 14 16 13 71 -7z"/>
</g>
</svg>
